# xmcd CD database file
#
# Track frame offsets:
#	150
#	85950
#	138710
#	208387
#
# Disc length: 3691 seconds
#
# Revision: 0
# Processed by: cddbd v1.5.2PL0 Copyright (c) Steve Scherf et al.
# Submitted via: CDex 1.78
#
DISCID=3c0e6904
DTITLE=Wadali Brothers - Farid
DYEAR=2004
DGENRE=Qawwali
TTITLE0=Tureya Tureya Ja
TTITLE1=Tum Idhar Dekh Lo
TTITLE2=Dum - dum Karo Farid
TTITLE3=Tu Mane Ya Na Mane
EXTD=YEAR: 2004
EXTT0=
EXTT1=
EXTT2=
EXTT3=
PLAYORDER=
